<?xml version="1.0" encoding="UTF-8" standalone="no"?>
<!-- Created with Inkscape (http://www.inkscape.org/) -->

<svg
   width="126.79048mm"
   height="14.684369mm"
   viewBox="0 0 126.79048 14.684369"
   version="1.1"
   id="svg5"
   inkscape:version="1.1.2 (b8e25be833, 2022-02-05)"
   sodipodi:docname="snowtricks-logo.svg"
   xmlns:inkscape="http://www.inkscape.org/namespaces/inkscape"
   xmlns:sodipodi="http://sodipodi.sourceforge.net/DTD/sodipodi-0.dtd"
   xmlns="http://www.w3.org/2000/svg"
   xmlns:svg="http://www.w3.org/2000/svg">
  <sodipodi:namedview
     id="namedview7"
     pagecolor="#ffffff"
     bordercolor="#666666"
     borderopacity="1.0"
     inkscape:pageshadow="2"
     inkscape:pageopacity="0.0"
     inkscape:pagecheckerboard="0"
     inkscape:document-units="mm"
     showgrid="false"
     inkscape:zoom="0.90583672"
     inkscape:cx="129.16235"
     inkscape:cy="203.12712"
     inkscape:window-width="1920"
     inkscape:window-height="1094"
     inkscape:window-x="-11"
     inkscape:window-y="-11"
     inkscape:window-maximized="1"
     inkscape:current-layer="text3948-3" />
  <defs
     id="defs2">
    <rect
       x="87.428513"
       y="148.31622"
       width="516.76495"
       height="249.79576"
       id="rect3950" />
    <rect
       x="87.428513"
       y="148.31622"
       width="516.76495"
       height="249.79576"
       id="rect3950-7" />
  </defs>
  <g
     inkscape:label="Calque 1"
     inkscape:groupmode="layer"
     id="layer1"
     transform="translate(-22.93863,-68.654155)">
    <g
       aria-label="SNOWTRICKS"
       transform="matrix(0.26458333,0,0,0.26458333,0.02719497,23.05503)"
       id="text3948-3"
       style="font-size:85.3333px;font-family:'BREAK IT';-inkscape-font-specification:'BREAK IT, Normal';white-space:pre">
      <g
         id="g31531">
        <path
           d="m 106.42773,173.50982 q 0.33333,0.375 0.83333,3.16666 l 2,-0.16667 h 2 q 3.04166,0 6.5,0.5 0.16666,-1.08333 0.99999,-2.99999 7,1.74999 9.5,5.33333 3.33333,4.45833 3.33333,8.66666 0.16667,0 0.16667,0.33333 -3.08333,0.66667 -13.33333,0.66667 -1.16666,-3.70833 -1.16666,-6.5 h -0.16667 v 3.33333 q 0,5.16667 1.66666,5.16667 0.66667,0 1.66667,2.66666 3.66667,0.70834 9,5.66667 1.33333,0 2.16666,2.16666 1.5,2.66667 1.5,6.33333 v 0.66667 q 0,6.70833 -5.16666,11.5 h -0.33334 q 0,-6.58333 -5.16666,-20.33333 h -0.66667 q 5,13.29166 5,20.49999 -2.66666,3.16667 -10.49999,4.83333 -2.5,0.5 -4,0.5 0,0.16667 1.33333,2 v 0.16667 l -1.66667,0.16667 h -0.16666 q -12.666664,-0.625 -12.666664,-3 0,-0.625 -1.666666,-7.83333 h -0.166666 l -0.5,3.33333 0.5,3 -0.333334,0.16666 Q 86.594401,218.42646 86.594401,208.34313 v -0.16666 q 0,-0.70833 11.166662,-1 0,-0.16667 3.333337,-0.33333 0.99999,2.66666 0.99999,3.49999 l -8.499992,4.5 q 0,0.33334 0.666667,3.66667 h 0.166666 l 0.666667,-3.83333 h 0.333333 q 0.333333,1.62499 0.333333,1.83333 l 8.499996,-4.16667 q 1.45833,3.25 2.66667,3.66667 v -0.83333 q 0.33333,0 2.99999,0.33333 5.33334,0 6.83334,-3.83333 0.16666,-0.91667 0.16666,-1.5 0,-3.29167 -5.16666,-5 v 2.66666 l -0.16667,0.33334 q -10.20833,-2.16667 -14.999993,-4.83333 v -0.16667 q 0.166667,0 0.166667,-0.16667 1.958332,0.16667 2.833332,0.16667 h 4.999994 q 1.95834,0 6.16667,-0.16667 l -0.16667,-1.66666 V 200.0098 H 96.094397 q -3.291665,-1.12499 -6.499997,-5.83333 -1.333333,-2.87499 -1.333333,-5.99999 v -0.16667 q 0,-12.33333 18.166663,-14.49999 z m 1.83333,7.66666 v 0.33333 h 0.16667 v -0.33333 z m 0.16667,0.83333 v 0.33334 h 0.16666 v -0.33334 z m -17.33333,0.16667 v 6.66666 l 0.166666,0.83334 q 10.291664,-0.33334 11.333324,-0.33334 l 1.16667,-0.16666 v -0.16667 h -0.66667 q -1.20833,0 -10.499991,0.33333 l -0.166667,-0.33333 q -0.166666,-4.58333 -0.166666,-6.33333 -0.833333,-0.5 -1.166666,-0.5 z m 11.66666,4.16666 q 1.91667,0.75 2.5,1.83334 v 0.33333 q 0,0.33333 -1,0.33333 0.625,0.91667 5.66666,2.33334 0.5,2.33333 0.83334,8.66666 l 1.66666,-0.16667 h 5.16667 q 1.91666,-1.375 2.83333,-2.5 0,-0.875 -0.5,-1 -1.04167,1.83334 -4,1.83334 h -4.66666 q -0.33334,0 -0.33334,-0.33334 0,-1.16666 -0.66666,-8.33333 0.16666,0 0.16666,-0.16666 l 5.5,1 q 0,-2.20834 -3.83333,-3.83334 -2.83333,-0.29166 -2.83333,-0.83333 -0.5,-2.16666 -0.5,-2.83333 -5.25,0 -6,3.66666 z"
           style="-inkscape-font-specification:'Broken World, Normal'"
           id="path27319" />
        <path
           d="m 151.01104,172.84315 q 1,0 1,5 0,2.04166 3.66666,6.66666 5.83334,8.95833 5.83334,9.16666 -0.83334,5.08334 -1,5.5 h 0.66666 v -0.16666 l 0.83334,-5.33334 h 0.16666 q 0.58334,0.45834 3.83333,5.33334 v 0.33333 h -0.33333 v 0.16666 q 1.5,2.04167 1.5,2.33334 h 0.16667 v -2.33334 q 0,-0.33333 0.83333,-0.33333 v -24.33332 q 0.0417,-0.33333 0.33333,-0.33333 h 14.16666 q 0.33334,0.0417 0.33334,0.33333 v 24.33332 q 0,0.33333 -0.83334,0.33333 v 2.16667 q -0.0417,0.5 -12.33332,5.66667 -0.91667,0.58333 -10.83333,4.99999 l -0.33334,-0.5 q 0.5,-4.95833 1.66667,-12.49999 -2.5,-0.16667 -3.5,-0.16667 h -5.5 v 0.16667 q 3.41667,0 7.33333,0.16666 0,0.16667 0.16667,0.16667 -0.66667,3.5 -1.83333,12.5 h -0.16667 l -5.83333,-8.66667 h -0.16667 v 13.66666 q 0,0.29167 -1.83333,1.33334 l -0.16667,1 v 5.16666 q 0,0.33333 -0.33333,0.33333 h -6.83333 l -1,0.16667 q -1.66666,-0.16667 -1.66666,-0.5 0.25,0 1.83333,-2 v -0.16666 q 0,-1.70834 -2.5,-22.33333 v -1.5 h 0.16667 q 6.66666,0.33334 11.16666,0.33334 l 0.33333,-0.16667 q 0.29167,0.16667 0.66667,0.16667 h 0.5 l -0.16667,-0.83334 v -0.5 q -9.08333,-0.33333 -11,-0.33333 -0.99999,-3.75 -1.49999,-14.33333 -0.16667,-1.125 -0.16667,-3.5 0.125,-6.33333 0.66667,-6.33333 h 2.16666 q 8.83333,-0.33333 9.83333,-0.33333 z m -16.49999,1.66667 h 0.5 l 0.33333,0.16666 -0.33333,6.33333 q 0,6.79167 4,39.66665 v 2.16667 q 0,2.16666 -0.5,2.16666 h -4.16667 q -0.33333,0 -0.33333,-0.33333 v -49.66664 q 0,-0.25 0.5,-0.5 z m 46.66664,28.33332 h 0.16667 v 12.49999 h 0.33333 l 0.33334,-0.16666 0.16666,0.33333 v 9.16666 q 0,0.33333 -0.33333,0.33333 h -5.16666 q -4.45834,0 -6.66667,0.33334 -3.16666,0 -4.66666,-3.33333 -0.16667,0 -0.83334,-1.33334 l -0.33333,0.16667 h -0.83333 l -5.16667,-7.66666 q 12.08333,-5.83333 22.99999,-10.33333 z"
           style="-inkscape-font-specification:'Broken World, Normal'"
           id="path27321" />
        <path
           d="m 211.13601,172.34315 q 6.375,0 12.66666,2.33333 0.625,-0.33333 1.33334,-0.33333 6.29166,3.20833 8.99999,8.66666 -2.5,1.16667 -2.83333,1.16667 1.20833,2.625 2.5,7.49999 0.95833,0.875 4,1.16667 0.5,1.70833 0.66667,5.5 -0.16667,0 -0.16667,0.16667 l -1.5,-0.33334 q 0,19.20833 -15.66666,24.83333 -1.625,0.49999 -2,0.49999 l -0.16667,-0.33333 q 2.75,-4.125 5.5,-11.66666 1.33333,-3.20833 3,-11.66666 -0.91667,-0.16667 -1.33333,-0.16667 -0.75,0 -5,-0.16667 -0.16667,-0.33333 -0.16667,-0.49999 0,-1.625 -0.33333,-5.16667 -2.83333,-0.41667 -2.83333,-1.66667 -0.66667,-1.99999 -0.66667,-2.49999 2.58333,-1.16667 2.83333,-1.16667 -2.5,-4.83333 -7.33333,-4.83333 h -1.33333 q -0.66667,2.16666 -2.66667,2.16666 -2.45833,0.45834 -4.83333,2.66667 l -0.83333,-0.16667 q -2,4.125 -2,9.16667 -1.79166,2.33333 -3,2.33333 v 0.16666 h 0.16667 l 0.66667,-0.33333 q 0.16666,0.33333 0.16666,0.5 0,10 6.5,12.5 1.91666,0.83333 3.66666,0.83333 h 1.5 q 5.91667,0 8.16667,-6.5 1,-2.54166 1,-6.16666 v -0.33334 l 0.16666,-0.33333 q 6.5,0.16667 6.5,0.66667 0,4.45833 -5.5,18.16666 -2.70833,5.37499 -3.33333,5.49999 -3.33333,0.83334 -7.5,0.83334 h -1.5 q -14.45832,0 -21.16665,-10 v -0.16666 q 0,-0.625 0.66666,-1.5 -1.83333,-2.45834 -3.16666,-8.16667 12.08333,-5.33333 13.33333,-6.16666 l 0.33333,-0.5 q -0.91667,-0.16667 -1.33333,-0.16667 h -2.66667 v 0.16667 h 2 v 0.16667 q 0,0.95833 -7.83333,3.99999 -5.08333,2.5 -6.16666,2.5 -0.5,-3.875 -0.5,-6.66666 0.0417,-0.33333 0.33333,-0.33333 h 2.83333 v -0.66667 q 0,-3 0.66667,-7.16666 -1.375,0.66666 -1.5,0.66666 l -0.16667,-0.33333 q 1,-4 3,-7.33333 l 0.5,-0.33333 q 7.20833,2.66666 7.66666,2.66666 l 2.16667,-0.83333 q 0.0833,0 1.66667,0.5 l 12.83332,-5.16667 1,-1.5 v -0.16666 q -8.54166,3.16666 -16.33332,6.33333 -3.08334,-0.83334 -8.16667,-2.83333 6.66667,-10 22.49999,-10 z m 14.66666,20.99999 v 1.33333 l 4,1 v -1 q 0,-2.125 1,-3.33333 -0.29166,0 -2.66666,-1.5 -2.33334,0 -2.33334,3.5 z m -39.99998,5.16667 v 0.16666 h 3.66667 v -0.16666 z"
           style="-inkscape-font-specification:'Broken World, Normal'"
           id="path27323" />
        <path
           d="m 236.42766,174.17648 h 14.33333 q 0.45833,0 2.16667,10.66666 l -0.33334,0.16667 h -2 q 1.83334,9.54166 1.83334,10.16666 h 0.16666 q 2.70834,-10.29166 3.33334,-11.16666 h 3.16666 q 0.29167,0 1.83333,-6 l 0.33334,-0.16666 h 14.16666 q 0.5,0 2.33333,7.49999 0.125,0 0.5,1.33334 -0.125,0.91666 -0.83333,1.16666 3.16666,11.91666 3.16666,12.5 h -0.16666 q -1.33334,0 -3.16667,-0.16667 -6.33333,1.58333 -6.33333,1.83333 0,0.125 -0.16667,1 5.20833,-1.5 6.33333,-1.5 h 2.16667 q 1,0 1,0.83334 h 0.16667 q 0.0833,-0.66667 0.5,-0.66667 6.58333,0.33333 12.33332,0.33333 h 1 q 0.33334,0.0417 0.33334,0.33334 l -5,22.99999 h -15.16666 q -0.625,-0.625 -2.16667,-7.16667 -0.16666,-0.16666 -2.83333,-9.83333 0,-0.41666 0.33333,-1.99999 -3.54166,-13.25 -3.83333,-13.33333 -0.16667,0.95833 -1.83333,6.33333 h 1.5 l 0.33333,0.16666 q -0.79166,4.16667 -1.83333,4.16667 -2.33333,0 -2.33333,1.16667 -2.66667,9.58333 -2.66667,9.99999 l 0.33333,-0.16666 h 0.33334 q -0.66667,3.16666 -2.5,9.33332 h -7.83333 q -0.33333,0 -0.33333,-0.33333 5.95833,-6.66666 6.16666,-6.66666 -0.70833,0 -7.16666,7.33333 H 241.261 q -0.41667,0 -4.16667,-17.99999 l 0.33333,-0.16667 h 2.5 q -1.66666,-6.16667 -1.66666,-8.33333 0.5,0 0.5,-0.16667 0,-0.66666 -3,-13.49999 l 0.33333,-0.16667 h 2.16667 l -2.16667,-9.66666 z m 46.66665,3.83333 h 14.16666 q 0.33333,0 0.33333,0.5 l -0.66666,3.16667 h 1.66666 v 0.16667 q -2.33333,11.66666 -2.66666,11.66666 h 0.16667 q 0.29166,-0.16667 0.66666,-0.16667 -1.20833,6.625 -1.83333,7.5 h -0.16667 q -3.58333,0 -13.33333,-0.33334 0,-0.33333 -0.33333,-0.33333 0.16667,-0.29167 0.33333,-1.5 l -0.33333,0.16667 -0.33333,-0.16667 2.33333,-11.49999 h -0.16667 q -0.91666,0.16666 -1.5,0.16666 -0.33333,0 -0.33333,-0.33333 1.66667,-9 2,-9 z m 12,15.66666 v 0.16667 h 0.16666 q 0.33334,-0.16667 0.5,-0.16667 v -0.16666 h -0.16666 q -0.33334,0.16666 -0.5,0.16666 z m -0.83334,0.33334 v 0.16666 h 0.16667 q 0.33333,-0.16666 0.5,-0.16666 v -0.16667 h -0.16667 q -0.33333,0.16667 -0.5,0.16667 z m -0.83333,0.33333 v 0.16667 h 0.16667 q 0.33333,-0.16667 0.5,-0.16667 v -0.16667 h -0.16667 q -0.33333,0.16667 -0.5,0.16667 z m -0.83333,0.33333 v 0.16667 h 0.16666 q 0.33334,-0.16667 0.5,-0.16667 v -0.16666 h -0.16666 q -0.33334,0.16666 -0.5,0.16666 z m -0.5,0.16667 v 0.16667 h 0.33333 v -0.16667 z m -0.83334,0.33333 v 0.16667 h 0.33334 v -0.16667 z m -0.83333,0.33334 v 0.16666 h 0.16667 q 0.33333,-0.16666 0.5,-0.16666 v -0.16667 h -0.16667 q -0.33333,0.16667 -0.5,0.16667 z m -0.5,0.16666 v 0.16667 h 0.33333 v -0.16667 z m -0.5,0.16667 v 0.16667 h 0.33333 v -0.16667 z m -0.83333,0.33333 v 0.16667 h 0.33333 v -0.16667 z m -0.5,0.16667 v 0.16667 h 0.33333 v -0.16667 z m -0.5,0.16667 v 0.16666 h 0.33333 v -0.16666 z m -0.83333,0.33333 v 0.16667 h 0.33333 v -0.16667 z m -0.5,0.16667 v 0.16666 h 0.33333 v -0.16666 z m -0.5,0.16666 v 0.16667 h 0.33333 v -0.16667 z m -0.5,0.16667 v 0.16667 h 0.33333 v -0.16667 z m -0.5,0.16667 v 0.16666 h 0.33333 v -0.16666 z m -0.5,0.16666 v 0.16667 h 0.33333 v -0.16667 z m -0.5,0.16667 v 0.16667 h 0.33333 v -0.16667 z m -0.5,0.16667 v 0.16666 h 0.33333 v -0.16666 z m -0.5,0.16666 v 0.16667 h 0.33333 v -0.16667 z m -0.5,0.16667 v 0.16667 h 0.33333 v -0.16667 z m -29.83332,0.83333 q 0.16666,1.45833 0.16666,1.83333 h 0.16667 l 0.5,-1.83333 z m -10.5,6.66667 v 0.16666 h 1.66667 v -0.16666 z"
           style="-inkscape-font-specification:'Broken World, Normal'"
           id="path27325" />
        <path
           d="m 296.80264,172.59315 h 17 l 0.33333,0.16667 q -2.66667,4.33333 -5,4.33333 l -12.66666,4 -0.16667,-0.33334 v -7.66666 q 0,-0.25 0.5,-0.5 z m 26.83333,0.33333 h 4.16666 q 0.5,0 0.83333,10.83333 0.16667,0 0.16667,1.83333 -0.83333,0 -0.83333,1 -0.16667,0 -0.16667,0.16667 -12.33333,-1.04167 -12.33333,-2.16667 h -3.5 q -0.625,0.41667 -1.5,3.33334 h -4.83333 q -0.33333,0 -0.33333,-0.33334 l 0.33333,-0.66666 h -9.66666 q -0.33333,0 -0.33333,-0.33334 v -3.66666 q 0,-0.45833 14.99999,-5 v 0.33333 q -3.54166,4.70834 -4.83333,7.5 h 0.33333 l 3.5,-4.83333 q 0,-1.125 3.66667,-2 0,0.16667 0.16666,0.16667 -0.16666,0.29166 -0.33333,1.66666 0.5,0 1,-3.66666 h -0.16667 l -3,0.83333 v -0.33333 q 1.91667,-2.66667 2.83334,-3.33333 h 4.66666 z m 5.83333,1.33334 h 14.99999 q 0.33333,0.0417 0.33333,0.33333 v 11.99999 q 0,0.33334 -0.33333,0.33334 h -14.33333 q -0.83333,0 -1,-11.5 v -0.83333 q 0.0417,-0.33333 0.33334,-0.33333 z m -16.66666,12.33332 h 3.49999 q 2.375,1.16667 4.16667,1.16667 8.66666,0.83333 8.66666,1.16667 -0.16666,1.95833 -0.16666,2.83333 v 5.5 l -0.16667,0.33333 -0.83333,-0.16667 h -14.33333 q -0.33333,0 -0.33333,-0.33333 v -9.5 q -0.75,0 -1,-0.16666 0.20833,-0.83334 0.5,-0.83334 z m -1.625,11.91667 h 12.33333 q 2.16666,0 2.99999,0.33333 0,1.33333 -0.16666,2.16666 0.16666,10.08333 0.16666,16.5 v 8.83333 q 0,0.33333 -0.33333,0.33333 l -15.66666,-1 q -0.33333,0 -0.33333,-0.33333 v -23.66666 h 0.33333 l 0.16667,0.83333 h 0.16666 v -3.66666 q 0.0417,-0.33333 0.33334,-0.33333 z"
           style="-inkscape-font-specification:'Broken World, Normal'"
           id="path27327" />
        <path
           d="m 345.63597,174.50982 h 9.99999 q 0.33334,0.0417 0.33334,0.33333 -1,3.625 -1.83334,7.83333 h 1 q 1,-5.66667 1.66667,-5.66667 h 8.49999 q 0.33334,0.0417 0.33334,0.33334 v 0.5 l -0.16667,1.66666 h 0.33333 q 0.33334,0 0.33334,-0.33333 0.16666,-3.08333 0.16666,-3.83333 l 0.33334,-0.16667 h 6.99999 q 12.45833,0 15.83333,5.33333 2.66667,4.33333 2.66667,8.5 v 1 l -0.16667,0.33333 q 0,-0.16666 -2.33333,-0.16666 -2.66667,7.49999 -6.5,7.49999 h -0.66667 q -7.79166,0 -19.66665,0.5 0,2.66667 -1,2.66667 h -0.33334 v 0.16666 h 1.16667 q 0.29167,0 0.5,-1.5 10.08333,-0.66666 20.99999,-0.66666 h 1.5 v 0.16667 q -1.875,1.49999 -5.66666,2.33333 v 0.16666 q 4.62499,1.70834 8.49999,8.16667 l 6.66667,13.33333 q -1.83334,0.83333 -2.66667,0.83333 h -14.16666 q -2.625,-3.75 -9.66666,-17.33333 -2.25,-3 -4.83333,-3 0,1.33334 -1,1.33334 -0.16667,1.66666 -0.16667,2.5 v 2.99999 l -1.5,12.16667 v 2.16666 q -0.0833,0.5 -1.33333,0.5 h -0.5 q -3.875,0 -11.16666,0.16667 l -0.16667,-0.33334 V 202.0098 h -0.16667 q -0.41666,0 -4.5,0.16667 l -0.16666,-0.33333 v -19.33333 h 0.16666 q 6.29167,0.5 8.5,0.5 l 0.16667,0.33334 q -1,5.83333 -1,12.66666 v 5.83333 h 1.83333 q 2.41667,-0.33334 2.5,-0.33334 v -0.16666 h -1.33333 l -0.83334,0.16666 -0.16666,-0.33333 v -3.5 q 0,-0.95833 -0.16667,-1.16666 0.16667,-0.91667 0.16667,-1.5 v -1.66667 q 0,-5.29166 1,-10.49999 h -0.16667 q -7.41666,0 -8.66666,-1 v -6.33333 q 0.125,-1 0.5,-1 z m 19.49999,8.83333 v 1.16666 q 0,0.83333 -4.16667,0.83333 v 9.5 h 0.83334 q 0.33333,0 0.66666,-2.66667 h 0.16667 q 0.625,0 4.66666,0.16667 5,0 6.5,-2.66666 0.5,-1.29167 0.5,-1.83334 v -2 l -5.5,-2.99999 q -2.70833,0.16666 -2.83333,0.33333 -0.16667,-0.29167 -0.16667,-0.83333 -0.66666,0.16666 -0.66666,1 z m -6.16667,17.66665 v 0.16667 h 1.83334 v -0.16667 z m -2.66666,0.16667 v 0.16667 h 1.83333 v -0.16667 z m -7.5,0.66667 v 0.16666 h 1.83333 v -0.16666 z"
           style="-inkscape-font-specification:'Broken World, Normal'"
           id="path27329" />
        <path
           d="m 408.38594,175.17648 1.16667,0.16667 h 1.16666 q 0.33333,0.0417 0.33333,0.33333 -1.66666,25.16666 -1.99999,25.16666 h -0.5 v 11.66666 l 2.66666,-0.16667 0.16667,0.33334 v 11.83332 q 0,0.33334 -0.33334,0.33334 h -13.16666 q -0.54166,0 -0.66666,-2.66667 -1.20834,1.83333 -1.33334,1.83333 h -0.16666 v -10.66666 l -0.83334,-0.16666 h -0.66666 q -0.41667,0.33333 -0.5,0.33333 h -0.16667 q 0,-0.16667 -0.16666,-0.5 3.99999,-8.33333 3.99999,-10 v -0.16666 h -0.16666 q -1.16667,3.79166 -3.66667,8.49999 h -0.16666 q -0.33334,0 -0.33334,-0.33333 0,-0.16667 0.16667,-0.16667 l -0.16667,-0.33333 v -10.33333 q 0,-0.41667 2,-0.5 v -23.16666 q 0.0417,-0.33333 0.33333,-0.33333 h 12.66667 q 0,-0.45833 0.33333,-1 z m -8.33333,25.66666 v 0.16666 h 0.5 v -0.16666 z m -5.16667,21.66666 h 0.33334 q 0.33333,2.37499 0.33333,2.66666 l -0.33333,0.16667 h -1.33333 q -0.33334,0 -0.33334,-0.33334 v -0.16666 q 1.33333,-2.04167 1.33333,-2.33333 z"
           style="-inkscape-font-specification:'Broken World, Normal'"
           id="path27331" />
        <path
           d="m 439.96927,172.34315 q 7.58333,0 13.33333,3.66666 -0.5,5.625 -0.83334,14 0,0.41667 -4.33333,1 -2.20833,-5.125 -5,-6 -0.45833,-0.33333 -1.33333,-0.33333 0,0.0833 0.16667,2.16666 -0.16667,0 -0.16667,0.16667 -1.58333,-0.33333 -2.5,-0.33333 -0.91666,0.16666 -1.33333,0.16666 -0.33333,-0.54166 -0.66667,-2.5 h -0.16666 q -0.54167,0 -2.83334,0.83334 -7.83333,-5 -12.33332,-7.5 v -0.16667 q 4.29166,-3.58333 10.83332,-4.66666 2.79167,-0.33333 3.16667,-0.33333 0.33333,0 0.5,5.99999 h 0.16667 v -2.66666 q -0.16667,-0.58333 -0.16667,-0.66667 l 0.33333,-0.16666 h 3.16667 q -0.33334,-1.83334 -0.33334,-2.5 z m 14.83333,3.5 h 0.33333 q 5.75,3.79166 8.49999,11.83333 -1.24999,0.66666 -9.33332,2.33333 -0.16667,-0.33333 -0.16667,-0.5 0,-3.5 0.66667,-13.66666 z m -35.33332,1.16666 q 3.74999,1.66667 12.66666,7.66667 -3.08333,1.83333 -4.33333,5.83333 -0.5,1.16666 -1.16667,5.83333 h -0.33333 q -0.125,0 -1,-0.16667 h -0.16667 v 0.16667 q 5.33333,1.04167 5.33333,1.5 v 3.16666 q 0,6.75 3.16667,10 2.70833,2.33333 5.83333,2.33333 h 2 q 0,-1.29166 2.33333,-1.83333 2.95833,-1.875 4.5,-7.5 0.125,-1.16666 0.5,-1.16666 1.70833,0.66666 3.83333,1.16666 v -0.16666 q -0.33333,-1.58334 -0.33333,-2 0.16666,0 0.16666,-0.16667 7.375,2.16667 9,2.83333 -1.91667,7.20833 -5,10.33333 h -0.33333 v -0.33333 h -0.16667 v 0.16667 q 1.33333,2.79166 1.33333,2.99999 -4.58333,4.58334 -8.49999,5.66667 -2.625,0.66666 -6.16667,1.16666 0,0.83334 -0.33333,0.83334 h -1.5 q -17.99999,0 -23.99999,-14 -2.16666,-5.79166 -2.16666,-11.83333 v -1.33333 q 0.58333,-2.5 1.83333,-2.5 v -0.16666 q -1.16667,0 -1.5,-0.33334 -1.16667,0.125 -1.16667,1.5 l -0.33333,0.16667 h -0.16667 v -1.66667 l 0.16667,-0.83333 h 0.16667 l 0.5,0.33333 h 0.66666 l 0.16667,-1.16666 v -0.5 q -3.5,-0.95834 -3.5,-1.5 1.5,-7.79167 5,-11.66666 1.58333,-1.83334 3,-2.83334 z m 17.16666,1.83334 v 1.16666 h 0.16666 v -1.16666 z m 0.16666,2 v 0.33333 h 0.16667 v -0.33333 z m -12.83333,14.99999 v 0.16667 h 0.33334 v -0.16667 z m 0.5,0.16667 v 0.16666 h 0.5 v -0.16666 z"
           style="-inkscape-font-specification:'Broken World, Normal'"
           id="path27333" />
        <path
           d="m 466.6359,174.00982 h 14.83333 l 0.33333,0.16666 q 0.16667,5.08333 0.16667,7.5 v 4.83333 q 0,0.33333 -0.33333,0.33333 -2.33333,0 -2.33333,-1 l -0.66667,-2.49999 h -0.16667 v 0.16666 q 0.33334,4 1.33334,4 1.5,0 1.5,0.33333 v 3.83333 h 0.99999 q 1.08334,0 3.83334,-3.66666 -1.66667,-0.125 -1.66667,-0.5 0.16667,0 8.83333,-10.16666 h 0.16667 l 7.49999,11.33333 q 0.66667,-0.25 0.66667,-0.5 -4.45833,-6.79167 -5.16666,-8.33333 0,-0.33334 2.49999,-2.83334 h 18.83333 q 0.33333,0 0.33333,0.5 -0.20833,1.70834 -4.16666,5.66667 -8.54167,8.49999 -8.83333,8.49999 -0.29167,0.16667 -0.83333,0.16667 -0.16667,0 -1.83334,-2.33333 -1.20833,1.04167 -2,2.33333 0,0.20833 4,6.66667 -5.375,6.12499 -10.99999,11.16666 h -0.33334 q -3.16666,-6.83333 -3.5,-6.83333 -1.83333,1.29166 -4.83333,4.5 l 0.16667,0.33333 v 0.66666 l 0.16667,2 q -0.125,0 -2.16667,2.5 v 9.16667 q 0,2.99999 -0.5,2.99999 h -14.99999 q -0.33334,0 -0.33334,-0.33333 v -30.16665 h -0.33333 l -1.16667,0.16666 -0.16666,-0.33333 v -6.16666 q 0,-1.95834 0.33333,-2.66667 2.16667,0.5 12.5,1.83333 v -0.16666 q 0,-1 -3.5,-1 -8.66667,-1.20834 -8.66667,-1.66667 v -8.33333 q 0,-2.16666 0.5,-2.16666 z m 20.5,13.99999 v 0.16667 h 0.5 v -0.16667 z m 2,0.16667 v 0.16666 h 0.33333 v -0.16666 z m 1.83333,0.16666 v 0.16667 h 0.33333 v -0.16667 z m 1.83333,0.16667 v 0.16667 h 0.33333 v -0.16667 z m -11.33333,5.83333 v 0.16667 q 0.83333,3.5 0.83333,3.83333 h 0.16667 v -0.33333 q -0.66667,-2.95834 -0.66667,-3.66667 z m 1,4.16667 v 0.5 h 0.16667 v -0.5 z m 21.33333,1.33333 q 0.41666,0.16666 1.33333,1.83333 v 0.33333 q -3.66667,5.58333 -7.66667,9 -2.83333,3.16667 -2.99999,3.16667 -1.66667,-2.91667 -1.66667,-3.33334 1.16667,-0.54166 11,-10.99999 z m 1.49999,3.16666 q 1.5,1.66667 1.5,2.5 -2.66666,11.375 -4.16666,19.66666 l -0.33333,0.16667 h -2.33334 q -2.16666,-3.5 -5.33333,-10.33333 7.375,-6.91667 8,-8.66666 2.5,-3.33334 2.66666,-3.33334 z m 2.83334,2.16667 q 0.25,0.0417 7.49999,11.99999 v 0.16667 q 0,0.5 -0.5,1.33333 3.66667,6.29167 3.66667,6.5 l -0.33333,0.16667 h -6.66667 q -0.41666,-0.33334 -0.5,-0.33334 h -7.49999 v -0.16666 q 0,-2.41667 4.16666,-19.66666 z"
           style="-inkscape-font-specification:'Broken World, Normal'"
           id="path27335" />
        <path
           d="m 539.13589,173.50982 q 0.33333,0.375 0.83333,3.16666 l 2,-0.16667 h 2 q 3.04166,0 6.5,0.5 0.16666,-1.08333 1,-2.99999 6.99999,1.74999 9.49999,5.33333 3.33333,4.45833 3.33333,8.66666 0.16667,0 0.16667,0.33333 -3.08333,0.66667 -13.33333,0.66667 -1.16666,-3.70833 -1.16666,-6.5 h -0.16667 v 3.33333 q 0,5.16667 1.66667,5.16667 0.66666,0 1.66666,2.66666 3.66667,0.70834 9,5.66667 1.33333,0 2.16666,2.16666 1.5,2.66667 1.5,6.33333 v 0.66667 q 0,6.70833 -5.16666,11.5 h -0.33334 q 0,-6.58333 -5.16666,-20.33333 h -0.66667 q 5,13.29166 5,20.49999 -2.66666,3.16667 -10.49999,4.83333 -2.5,0.5 -4,0.5 0,0.16667 1.33333,2 v 0.16667 l -1.66667,0.16667 h -0.16666 q -12.66666,-0.625 -12.66666,-3 0,-0.625 -1.66667,-7.83333 h -0.16667 l -0.5,3.33333 0.5,3 -0.33333,0.16666 q -10.33333,-5.08333 -10.33333,-15.16666 v -0.16666 q 0,-0.70833 11.16666,-1 0,-0.16667 3.33334,-0.33333 1,2.66666 1,3.49999 l -8.5,4.5 q 0,0.33334 0.66667,3.66667 h 0.16666 l 0.66667,-3.83333 h 0.33333 q 0.33333,1.62499 0.33333,1.83333 l 8.5,-4.16667 q 1.45833,3.25 2.66667,3.66667 v -0.83333 q 0.33333,0 3,0.33333 5.33333,0 6.83333,-3.83333 0.16666,-0.91667 0.16666,-1.5 0,-3.29167 -5.16666,-5 v 2.66666 l -0.16667,0.33334 q -10.20833,-2.16667 -14.99999,-4.83333 v -0.16667 q 0.16666,0 0.16666,-0.16667 1.95834,0.16667 2.83334,0.16667 h 4.99999 q 1.95834,0 6.16667,-0.16667 l -0.16667,-1.66666 v -1.33334 h -14.49999 q -3.29167,-1.12499 -6.5,-5.83333 -1.33333,-2.87499 -1.33333,-5.99999 v -0.16667 q 0,-12.33333 18.16666,-14.49999 z m 1.83333,7.66666 v 0.33333 h 0.16667 v -0.33333 z m 0.16667,0.83333 v 0.33334 h 0.16666 v -0.33334 z m -17.33333,0.16667 v 6.66666 l 0.16667,0.83334 q 10.29166,-0.33334 11.33333,-0.33334 l 1.16666,-0.16666 v -0.16667 h -0.66667 q -1.20833,0 -10.49999,0.33333 l -0.16667,-0.33333 q -0.16666,-4.58333 -0.16666,-6.33333 -0.83334,-0.5 -1.16667,-0.5 z m 11.66666,4.16666 q 1.91667,0.75 2.5,1.83334 v 0.33333 q 0,0.33333 -1,0.33333 0.625,0.91667 5.66667,2.33334 0.5,2.33333 0.83333,8.66666 l 1.66666,-0.16667 h 5.16667 q 1.91666,-1.375 2.83333,-2.5 0,-0.875 -0.5,-1 -1.04167,1.83334 -4,1.83334 h -4.66666 q -0.33334,0 -0.33334,-0.33334 0,-1.16666 -0.66666,-8.33333 0.16667,0 0.16667,-0.16666 l 5.49999,1 q 0,-2.20834 -3.83333,-3.83334 -2.83333,-0.29166 -2.83333,-0.83333 -0.5,-2.16666 -0.5,-2.83333 -5.25,0 -6,3.66666 z"
           style="-inkscape-font-specification:'Broken World, Normal'"
           id="path27337" />
      </g>
    </g>
  </g>
</svg>
